HIERARCHY
ROOT Hips
{
    OFFSET 0.000000 0.000000 0.000000
    CHANNELS 6 Xposition Yposition Zposition Zrotation Yrotation Xrotation
    JOINT Chest
    {
        OFFSET 0.000000 1.634758 -0.000000
        CHANNELS 3 Zrotation Yrotation Xrotation
        JOINT Chest2
        {
            OFFSET 0.000000 2.197341 0.000000
            CHANNELS 3 Zrotation Yrotation Xrotation
            JOINT Neck
            {
                OFFSET 0.000000 0.961544 0.000000
                CHANNELS 3 Zrotation Yrotation Xrotation
                JOINT Head
                {
                    OFFSET 0.000000 0.632542 -0.032565
                    CHANNELS 3 Zrotation Yrotation Xrotation
                    End Site
                    {
                        OFFSET -0.000001 0.439502 2.922845
                    }
                }
            }
            JOINT LeftCollar
            {
                OFFSET 0.167536 0.778237 -0.168280
                CHANNELS 3 Zrotation Yrotation Xrotation
                JOINT LeftShoulder
                {
                    OFFSET 0.831514 -0.002900 0.006458
                    CHANNELS 3 Zrotation Yrotation Xrotation
                    JOINT LeftElbow
                    {
                        OFFSET 2.272872 -0.026639 0.059314
                        CHANNELS 3 Zrotation Yrotation Xrotation
                        JOINT LeftWrist
                        {
                            OFFSET 2.081982 -0.024402 0.054333
                            CHANNELS 3 Zrotation Yrotation Xrotation
                            JOINT LeftHandThumb1
                            {
                                OFFSET 0.218903 -0.128645 0.283837
                                CHANNELS 3 Zrotation Yrotation Xrotation
                                JOINT LeftHandThumb2
                                {
                                    OFFSET 0.137157 -0.025101 0.077902
                                    CHANNELS 3 Zrotation Yrotation Xrotation
                                    JOINT LeftHandThumb3
                                    {
                                        OFFSET 0.153841 -0.092013 0.037491
                                        CHANNELS 3 Zrotation Yrotation Xrotation
                                        End Site
                                        {
                                            OFFSET 0.250229 -0.094298 0.018159
                                        }
                                    }
                                }
                            }
                            JOINT LeftHandFore1
                            {
                                OFFSET 0.767340 -0.016076 0.196678
                                CHANNELS 3 Zrotation Yrotation Xrotation
                                JOINT LeftHandFore2
                                {
                                    OFFSET 0.209704 -0.054892 -0.002535
                                    CHANNELS 3 Zrotation Yrotation Xrotation
                                    JOINT LeftHandFore3
                                    {
                                        OFFSET 0.094862 -0.086925 0.014435
                                        CHANNELS 3 Zrotation Yrotation Xrotation
                                        End Site
                                        {
                                            OFFSET 0.043534 -0.188195 0.007354
                                        }
                                    }
                                }
                            }
                            JOINT LeftHandMiddle1
                            {
                                OFFSET 0.709887 -0.008320 0.018526
                                CHANNELS 3 Zrotation Yrotation Xrotation
                                JOINT LeftHandMiddle2
                                {
                                    OFFSET 0.191985 -0.150395 0.024221
                                    CHANNELS 3 Zrotation Yrotation Xrotation
                                    JOINT LeftHandMiddle3
                                    {
                                        OFFSET 0.033369 -0.142120 0.008454
                                        CHANNELS 3 Zrotation Yrotation Xrotation
                                        End Site
                                        {
                                            OFFSET -0.074853 -0.222748 0.020270
                                        }
                                    }
                                }
                            }
                            JOINT LeftHandRing1
                            {
                                OFFSET 0.743817 -0.005823 -0.153668
                                CHANNELS 3 Zrotation Yrotation Xrotation
                                JOINT LeftHandRing2
                                {
                                    OFFSET 0.217468 -0.278222 -0.005782
                                    CHANNELS 3 Zrotation Yrotation Xrotation
                                    JOINT LeftHandRing3
                                    {
                                        OFFSET -0.044417 -0.127138 0.021648
                                        CHANNELS 3 Zrotation Yrotation Xrotation
                                        End Site
                                        {
                                            OFFSET -0.113601 -0.038708 0.004031
                                        }
                                    }
                                }
                            }
                            JOINT LeftHandLittle1
                            {
                                OFFSET 0.689408 -0.053302 -0.308304
                                CHANNELS 3 Zrotation Yrotation Xrotation
                                JOINT LeftHandLittle2
                                {
                                    OFFSET 0.032343 -0.192093 0.010410
                                    CHANNELS 3 Zrotation Yrotation Xrotation
                                    JOINT LeftHandLittle3
                                    {
                                        OFFSET -0.112640 -0.042317 -0.004212
                                        CHANNELS 3 Zrotation Yrotation Xrotation
                                        End Site
                                        {
                                            OFFSET -0.187187 0.035315 -0.001619
                                        }
                                    }
                                }
                            }
                        }
                    }
                }
            }
            JOINT RightCollar
            {
                OFFSET -0.167536 0.778237 -0.168280
                CHANNELS 3 Zrotation Yrotation Xrotation
                JOINT RightShoulder
                {
                    OFFSET -0.831514 -0.002900 0.006457
                    CHANNELS 3 Zrotation Yrotation Xrotation
                    JOINT RightElbow
                    {
                        OFFSET -2.272872 -0.026639 0.059313
                        CHANNELS 3 Zrotation Yrotation Xrotation
                        JOINT RightWrist
                        {
                            OFFSET -2.081982 -0.024402 0.054331
                            CHANNELS 3 Zrotation Yrotation Xrotation
                            JOINT RightHandThumb1
                            {
                                OFFSET -0.218911 -0.128571 0.283837
                                CHANNELS 3 Zrotation Yrotation Xrotation
                                JOINT RightHandThumb2
                                {
                                    OFFSET -0.137157 -0.025101 0.077902
                                    CHANNELS 3 Zrotation Yrotation Xrotation
                                    JOINT RightHandThumb3
                                    {
                                        OFFSET -0.172261 -0.047871 0.039673
                                        CHANNELS 3 Zrotation Yrotation Xrotation
                                        End Site
                                        {
                                            OFFSET -0.234990 -0.039993 0.122543
                                        }
                                    }
                                }
                            }
                            JOINT RightHandFore1
                            {
                                OFFSET -0.767344 -0.015991 0.196679
                                CHANNELS 3 Zrotation Yrotation Xrotation
                                JOINT RightHandFore2
                                {
                                    OFFSET -0.134492 -0.169567 0.012474
                                    CHANNELS 3 Zrotation Yrotation Xrotation
                                    JOINT RightHandFore3
                                    {
                                        OFFSET 0.028013 -0.126223 0.006729
                                        CHANNELS 3 Zrotation Yrotation Xrotation
                                        End Site
                                        {
                                            OFFSET 0.072568 -0.175329 0.036882
                                        }
                                    }
                                }
                            }
                            JOINT RightHandMiddle1
                            {
                                OFFSET -0.709887 -0.008302 0.018525
                                CHANNELS 3 Zrotation Yrotation Xrotation
                                JOINT RightHandMiddle2
                                {
                                    OFFSET -0.075336 -0.233019 0.009415
                                    CHANNELS 3 Zrotation Yrotation Xrotation
                                    JOINT RightHandMiddle3
                                    {
                                        OFFSET 0.064084 -0.131444 -0.000367
                                        CHANNELS 3 Zrotation Yrotation Xrotation
                                        End Site
                                        {
                                            OFFSET 0.179646 -0.152570 -0.008954
                                        }
                                    }
                                }
                            }
                            JOINT RightHandRing1
                            {
                                OFFSET -0.743819 -0.005785 -0.153669
                                CHANNELS 3 Zrotation Yrotation Xrotation
                                JOINT RightHandRing2
                                {
                                    OFFSET -0.112392 -0.334445 -0.015743
                                    CHANNELS 3 Zrotation Yrotation Xrotation
                                    JOINT RightHandRing3
                                    {
                                        OFFSET 0.068735 -0.117779 -0.002942
                                        CHANNELS 3 Zrotation Yrotation Xrotation
                                        End Site
                                        {
                                            OFFSET 0.110621 -0.046539 0.004156
                                        }
                                    }
                                }
                            }
                            JOINT RightHandLittle1
                            {
                                OFFSET -0.689403 -0.053298 -0.308303
                                CHANNELS 3 Zrotation Yrotation Xrotation
                                JOINT RightHandLittle2
                                {
                                    OFFSET -0.055643 -0.184018 -0.033111
                                    CHANNELS 3 Zrotation Yrotation Xrotation
                                    JOINT RightHandLittle3
                                    {
                                        OFFSET 0.069584 -0.098099 -0.005505
                                        CHANNELS 3 Zrotation Yrotation Xrotation
                                        End Site
                                        {
                                            OFFSET 0.136121 -0.132930 0.009443
                                        }
                                    }
                                }
                            }
                        }
                    }
                }
            }
        }
    }
    JOINT LeftHip
    {
        OFFSET 0.685143 0.673822 -0.044491
        CHANNELS 3 Zrotation Yrotation Xrotation
        JOINT LeftKnee
        {
            OFFSET 0.085364 -3.750208 0.017676
            CHANNELS 3 Zrotation Yrotation Xrotation
            JOINT LeftAnkle
            {
                OFFSET 0.094583 -4.155206 0.019585
                CHANNELS 3 Zrotation Yrotation Xrotation
                JOINT LeftToe
                {
                    OFFSET -0.000000 -0.395925 0.621478
                    CHANNELS 3 Zrotation Yrotation Xrotation
                    End Site
                    {
                        OFFSET -0.000000 -0.077878 0.321152
                    }
                }
            }
        }
    }
    JOINT RightHip
    {
        OFFSET -0.685143 0.673822 -0.044492
        CHANNELS 3 Zrotation Yrotation Xrotation
        JOINT RightKnee
        {
            OFFSET -0.085364 -3.750208 0.017677
            CHANNELS 3 Zrotation Yrotation Xrotation
            JOINT RightAnkle
            {
                OFFSET -0.094583 -4.155206 0.019585
                CHANNELS 3 Zrotation Yrotation Xrotation
                JOINT RightToe
                {
                    OFFSET -0.000000 -0.395925 0.621478
                    CHANNELS 3 Zrotation Yrotation Xrotation
                    End Site
                    {
                        OFFSET -0.000000 -0.077878 0.321152
                    }
                }
            }
        }
    }
}
MOTION
Frames: 4
Frame Time: 0.033333
-0.035605 9.045649 -0.207511 -179.542160 4.072903 172.462997 0.399460 1.718966 9.672420 0.979077 -0.291907 -5.704107 7.174206 1.084018 12.561379 -0.071456 1.387856 25.910532 -5.675824 -5.794436 -0.060211 -49.817425 2.273104 22.670671 177.870148 -62.731895 -178.708908 37.504322 -40.472130 13.970491 -0.000000 0.000022 -0.000012 20.723911 -51.348377 28.737682 18.064552 -8.182743 20.008549 19.794090 -22.588167 -78.560097 -21.952614 14.958173 11.196477 -20.289242 3.341205 8.591178 38.551796 0.230758 6.646680 38.139160 6.132033 -3.889960 31.219296 -7.496789 -0.987283 49.441349 -2.149083 14.789368 56.436211 -11.000666 4.174651 49.943645 18.227551 28.451519 63.563591 -28.327848 40.421555 73.762222 12.630105 7.066935 39.631054 -7.195400 18.412086 3.934905 6.462717 0.005488 51.525135 1.423399 16.312660 -178.197174 53.783932 -179.092957 -29.147587 3.605889 28.170296 0.000000 0.000003 -0.000010 -5.999545 3.130849 -41.609261 22.110954 11.008933 -9.796294 -39.718212 -9.576357 -60.893055 1.410703 -1.421430 0.536152 46.880135 4.540444 9.736670 -72.180092 -1.892286 0.257024 -44.010624 -3.078757 -1.113718 -22.672787 -4.013261 1.933650 -69.763405 0.993301 9.436114 -46.807793 2.573335 2.353700 -33.657082 2.580519 1.325414 -73.203842 0.895952 17.945240 -44.138084 14.513428 -2.455407 -17.273691 10.892882 3.792564 -1.027954 -0.065965 4.633769 0.015704 0.201753 8.899163 2.533401 8.293490 23.036219 -0.014400 0.662753 -14.875089 1.204692 0.227268 5.242339 -0.004486 -0.108103 4.754646 -3.073319 4.071191 25.869043 0.017470 -0.759575 -14.948831
-0.079763 8.911783 -0.260384 -179.839584 1.029529 173.908905 0.753706 1.226856 8.122593 1.051313 -0.198536 -6.884082 6.444141 0.651208 12.321577 -0.033881 0.658258 25.605520 -5.570219 -5.809523 -0.053009 -52.027298 1.531284 23.540653 177.927582 -61.513264 -178.773956 37.450161 -40.497311 14.336707 0.000007 -0.000005 -0.000005 20.723900 -51.348377 28.737677 18.064556 -8.182743 20.008549 19.794100 -22.588190 -78.560097 -21.952614 14.958166 11.196468 -20.289242 3.341199 8.591177 38.551807 0.230736 6.646671 38.139160 6.132028 -3.889964 31.219303 -7.496788 -0.987286 49.441353 -2.149096 14.789366 56.436207 -11.000669 4.174652 49.943642 18.227549 28.451515 63.563614 -28.327850 40.421543 73.762222 12.630108 7.066938 39.631054 -7.195399 18.412083 3.807516 6.178566 0.001070 50.872337 -0.507590 14.646596 -178.239044 52.150208 -179.145538 -29.548328 3.718606 27.862278 0.000000 0.000005 -0.000024 -5.999546 3.130848 -41.609257 22.110954 11.008941 -9.796295 -39.718220 -9.576370 -60.893070 1.410702 -1.421433 0.536154 46.880127 4.540451 9.736674 -72.180099 -1.892302 0.257012 -44.010624 -3.078757 -1.113718 -22.672783 -4.013266 1.933645 -69.763428 0.993283 9.436100 -46.807796 2.573331 2.353703 -33.657074 2.580522 1.325411 -73.203865 0.895934 17.945227 -44.138088 14.513432 -2.455412 -17.273687 10.892880 3.792567 -1.444565 -0.114356 3.481311 0.015227 0.198687 8.762874 2.493284 5.538734 22.205561 -0.086584 0.700583 -20.675650 0.651863 0.251616 4.265620 -0.005609 -0.120847 5.316658 -2.869907 1.918758 24.331244 0.139275 -1.084024 -20.952873
-0.120284 8.787105 -0.306319 179.707092 -2.602875 175.306870 1.092342 0.077280 6.592418 0.677589 -0.012238 -7.508883 4.618270 0.191900 11.502428 -0.009280 0.180452 24.019388 -5.430170 -6.212732 -0.031694 -53.828396 -0.459046 23.579830 177.919785 -61.684654 -178.765121 37.395535 -40.521984 14.703502 0.000000 -0.000001 -0.000022 20.723911 -51.348373 28.737686 18.064550 -8.182739 20.008554 19.794106 -22.588177 -78.560112 -21.952612 14.958167 11.196469 -20.289242 3.341200 8.591172 38.551800 0.230754 6.646671 38.139160 6.132030 -3.889960 31.219296 -7.496793 -0.987281 49.441364 -2.149077 14.789363 56.436207 -11.000669 4.174647 49.943649 18.227549 28.451515 63.563614 -28.327845 40.421543 73.762222 12.630108 7.066934 39.631054 -7.195397 18.412079 3.682560 5.913936 -0.013851 49.843327 -1.110251 13.165497 -178.250626 51.669174 -179.160294 -29.875572 3.833549 27.541859 -0.000005 0.000002 -0.000010 -5.999546 3.130847 -41.609257 22.110960 11.008935 -9.796293 -39.718216 -9.576361 -60.893070 1.410708 -1.421435 0.536150 46.880123 4.540453 9.736675 -72.180107 -1.892284 0.257014 -44.010624 -3.078757 -1.113718 -22.672781 -4.013269 1.933648 -69.763428 0.993298 9.436100 -46.807793 2.573337 2.353698 -33.657074 2.580524 1.325415 -73.203865 0.895945 17.945230 -44.138084 14.513433 -2.455416 -17.273689 10.892876 3.792565 -1.962099 -0.531005 2.561949 0.013347 0.186082 8.202974 1.884474 2.567038 21.662792 -0.070318 0.307628 -26.504589 0.060409 0.268110 3.581583 -0.006120 -0.126223 5.553889 -2.928844 0.277155 22.921970 0.359588 -1.507523 -27.048853
-0.152777 8.681366 -0.340909 179.132477 -5.646243 176.561066 1.535964 -1.109215 6.353561 0.157166 0.168191 -6.685228 2.038446 -0.004414 10.171599 -0.014385 0.279609 21.416229 -5.053537 -6.726846 -0.009854 -54.215137 -3.708061 23.098560 177.932480 -61.403694 -178.779556 37.340527 -40.546211 15.070816 0.000001 0.000002 -0.000005 20.723911 -51.348377 28.737680 18.064556 -8.182735 20.008551 19.794090 -22.588186 -78.560097 -21.952606 14.958167 11.196466 -20.289242 3.341203 8.591172 38.551796 0.230743 6.646687 38.139164 6.132028 -3.889966 31.219299 -7.496785 -0.987282 49.441345 -2.149092 14.789368 56.436207 -11.000666 4.174647 49.943645 18.227551 28.451513 63.563599 -28.327854 40.421543 73.762222 12.630111 7.066937 39.631050 -7.195399 18.412081 3.365421 5.676993 -0.029169 47.655495 0.043445 12.117188 -178.273026 50.699341 -179.189102 -30.132500 3.949860 27.213625 -0.000010 0.000003 -0.000015 -5.999545 3.130845 -41.609257 22.110958 11.008938 -9.796292 -39.718231 -9.576360 -60.893055 1.410702 -1.421431 0.536153 46.880138 4.540451 9.736673 -72.180099 -1.892278 0.257016 -44.010632 -3.078757 -1.113718 -22.672789 -4.013265 1.933650 -69.763428 0.993298 9.436110 -46.807796 2.573335 2.353701 -33.657074 2.580521 1.325410 -73.203865 0.895948 17.945229 -44.138088 14.513427 -2.455407 -17.273689 10.892883 3.792562 -2.580141 -1.551536 2.057134 0.010271 0.163332 7.194377 0.918202 0.819804 21.444143 0.130837 -0.404400 -31.560726 -0.623911 -0.454832 3.037057 -0.006261 -0.127661 5.617402 -3.297207 0.187179 21.712126 0.684866 -2.007438 -32.473347
